<svg xmlns="http://www.w3.org/2000/svg" viewBox="0 0 400 400" width="400" height="400" role="img" aria-label="Ультразвуковая система Samsung Medison HS40 — технический чертёж">
  <title>Ультразвуковая система Samsung Medison HS40</title>
  <g stroke="#E4EEF5" stroke-width="0.8">
    <path d="M0 25H400M0 50H400M0 75H400M0 100H400M0 125H400M0 150H400M0 175H400M0 200H400M0 225H400M0 250H400M0 275H400M0 300H400M0 325H400M0 350H400M0 375H400"/>
    <path d="M25 0V400M50 0V400M75 0V400M100 0V400M125 0V400M150 0V400M175 0V400M200 0V400M225 0V400M250 0V400M275 0V400M300 0V400M325 0V400M350 0V400M375 0V400"/>
  </g>
  <g stroke="#E55220" stroke-width="2" fill="none">
    <path d="M14 26V14H26M374 14H386V26M386 374V386H374M26 386H14V374"/>
  </g>
  <text x="386" y="34" text-anchor="end" font-family="ui-monospace, 'JetBrains Mono', Consolas, monospace" font-size="13" letter-spacing="2.5" fill="#6C93AE">HS40</text>

  <g stroke-linejoin="round" stroke-linecap="round">
    <!-- Монитор -->
    <g fill="#FFFFFF" stroke="#123B55" stroke-width="2.5">
      <rect x="128" y="58" width="150" height="102" rx="7"/>
      <path d="M196 160h14v16h-14z"/>
    </g>
    <rect x="138" y="68" width="130" height="82" rx="3" fill="#EAF3F8" stroke="#123B55" stroke-width="2"/>
    <!-- Секторное УЗ-изображение -->
    <path d="M203 74 165 138a76 76 0 0 0 76 0Z" fill="#FFFFFF" stroke="#6C93AE" stroke-width="1.5"/>
    <path d="M203 74 180 128M203 74l23 54" stroke="#6C93AE" stroke-width="1" fill="none"/>
    <path d="M186 118c8 6 12 8 17 8s9-2 17-8" fill="none" stroke="#E55220" stroke-width="1.8"/>
    <path d="M192 106c4 4 7 5 11 5s7-1 11-5" fill="none" stroke="#6C93AE" stroke-width="1.2"/>
    <!-- Панель управления -->
    <g fill="#FFFFFF" stroke="#123B55" stroke-width="2.5">
      <path d="M118 210 136 176h134l18 34Z"/>
    </g>
    <g fill="#FFFFFF" stroke="#6C93AE" stroke-width="1.4">
      <circle cx="238" cy="196" r="11"/>
      <circle cx="204" cy="194" r="6"/>
      <circle cx="180" cy="194" r="6"/>
      <rect x="140" y="188" width="26" height="12" rx="2"/>
    </g>
    <circle cx="238" cy="196" r="4" fill="#EAF3F8" stroke="#6C93AE" stroke-width="1"/>
    <!-- Клавиатурная полка -->
    <g fill="#FFFFFF" stroke="#123B55" stroke-width="2.5">
      <rect x="130" y="210" width="140" height="14" rx="4"/>
    </g>
    <!-- Колонна -->
    <g fill="#FFFFFF" stroke="#123B55" stroke-width="2.5">
      <path d="M188 224h24l6 76h-36Z"/>
    </g>
    <!-- Держатели датчиков слева -->
    <g fill="#FFFFFF" stroke="#123B55" stroke-width="2">
      <path d="M130 236h-18v26h14"/>
      <path d="M112 244c-6 2-10 8-9 14 1 7 8 11 15 10"/>
    </g>
    <!-- Датчики -->
    <g fill="#FFFFFF" stroke="#123B55" stroke-width="2">
      <path d="M96 250c-5 2-8 7-7 12s6 9 12 8l4-1-4-20Z"/>
      <path d="M101 270c-2 16 2 26 10 34"/>
      <path d="M76 262a10 10 0 1 0 14-10l-6-2-8 12Z" transform="translate(0 14)"/>
      <path d="M80 288c0 14 6 22 16 26"/>
    </g>
    <!-- Основание с колёсами -->
    <g fill="#FFFFFF" stroke="#123B55" stroke-width="2.5">
      <path d="M136 322 158 300H242L264 322Z"/>
      <circle cx="150" cy="332" r="9"/>
      <circle cx="250" cy="332" r="9"/>
      <circle cx="150" cy="332" r="3" stroke="#6C93AE" stroke-width="1.4"/>
      <circle cx="250" cy="332" r="3" stroke="#6C93AE" stroke-width="1.4"/>
    </g>
  </g>

  <g stroke="#123B55" stroke-width="1.5"><path d="M84 348H316"/></g>
  <g stroke="#6C93AE" stroke-width="1">
    <path d="M96 348l-8 9M126 348l-8 9M156 348l-8 9M186 348l-8 9M216 348l-8 9M246 348l-8 9M276 348l-8 9M306 348l-8 9"/>
  </g>

  <!-- Выноска: датчики -->
  <g fill="none" stroke="#C44217" stroke-width="1.3">
    <path d="M92 246c-14-18-14-40-4-58"/>
    <circle cx="93" cy="248" r="2.4" fill="#C44217"/>
  </g>
  <text x="86" y="176" text-anchor="middle" font-family="ui-monospace, 'JetBrains Mono', Consolas, monospace" font-size="11" fill="#C44217">3 ПОРТА</text>

  <g stroke="#6C93AE" stroke-width="1">
    <path d="M334 58v274M328 58h12M328 332h12"/>
  </g>
  <text x="348" y="196" transform="rotate(90 348 196)" text-anchor="middle" font-family="ui-monospace, 'JetBrains Mono', Consolas, monospace" font-size="11" letter-spacing="1.5" fill="#6C93AE">H 1420</text>
</svg>
